<svg width="100" height="100" viewBox="0 0 100 100" fill="none" xmlns="http://www.w3.org/2000/svg">
<path fill-rule="evenodd" clip-rule="evenodd" d="M15 39V32H12.5C10.0146 32 8 29.9854 8 27.5C8 25.0146 10.0146 23 12.5 23H15V6.3125C15 5.47925 15.4167 5.04175 16.25 5H53.375C64.0417 5 72.25 7.5625 78 12.6875C81.115 15.4441 83.3923 18.8816 84.832 23H87.5C89.9854 23 92 25.0146 92 27.5C92 29.9854 89.9854 32 87.5 32H86.5847C86.6313 32.6899 86.6621 33.3926 86.677 34.1082C86.6841 34.4443 86.6875 34.7832 86.6875 35.125C86.6875 36.46 86.6338 37.7517 86.5261 39H87.5C89.9854 39 92 41.0146 92 43.5C92 45.9854 89.9854 48 87.5 48H84.5398C83.092 51.7566 80.9121 54.9231 78 57.5C72.25 62.625 64.0417 65.1875 53.375 65.1875H26.5V93.375C26.5 94.2083 26.0833 94.625 25.25 94.625H16.25C15.4167 94.625 15 94.2083 15 93.375V48H12.5C10.0146 48 8 45.9854 8 43.5C8 41.0146 10.0146 39 12.5 39H15ZM26.5 48V56.25H53.375C60.125 56.25 65.4375 54.5 69.3125 51C70.2927 50.1147 71.1489 49.1147 71.8811 48H26.5ZM74.9116 39H26.5V32H74.989C75.0796 32.9998 75.125 34.0415 75.125 35.125C75.125 36.4824 75.054 37.7742 74.9116 39ZM69.3125 19.25C70.5078 20.3296 71.5186 21.5796 72.3452 23H26.5V14H53.375C60.125 14 65.4375 15.75 69.3125 19.25Z" fill="white"/>
</svg>
