<svg width="100" height="100" viewBox="0 0 100 100" fill="none" xmlns="http://www.w3.org/2000/svg">
<path d="M95 50C95 74.8528 74.8528 95 50 95C25.1472 95 5 74.8528 5 50C5 25.1472 25.1472 5 50 5C74.8528 5 95 25.1472 95 50ZM14.7024 50C14.7024 69.4944 30.5056 85.2976 50 85.2976C69.4944 85.2976 85.2976 69.4944 85.2976 50C85.2976 30.5056 69.4944 14.7024 50 14.7024C30.5056 14.7024 14.7024 30.5056 14.7024 50Z" fill="white"/>
<path d="M72 50.5C72 62.9264 61.9264 73 49.5 73C37.0736 73 27 62.9264 27 50.5C27 38.0736 37.0736 28 49.5 28C61.9264 28 72 38.0736 72 50.5ZM36.3423 50.5C36.3423 57.7668 42.2332 63.6577 49.5 63.6577C56.7668 63.6577 62.6577 57.7668 62.6577 50.5C62.6577 43.2332 56.7668 37.3423 49.5 37.3423C42.2332 37.3423 36.3423 43.2332 36.3423 50.5Z" fill="white"/>
</svg>
